<?xml version="1.0" encoding="UTF-8" standalone="no"?>
<svg
   xmlns:dc="http://purl.org/dc/elements/1.1/"
   xmlns:cc="http://creativecommons.org/ns#"
   xmlns:rdf="http://www.w3.org/1999/02/22-rdf-syntax-ns#"
   xmlns:svg="http://www.w3.org/2000/svg"
   xmlns="http://www.w3.org/2000/svg"
   xmlns:sodipodi="http://sodipodi.sourceforge.net/DTD/sodipodi-0.dtd"
   xmlns:inkscape="http://www.inkscape.org/namespaces/inkscape"
   viewBox="0 0 372.49668 64.770189"
   width="2577.2744"
   height="448.13968"
   version="1.1"
   id="svg3524"
   sodipodi:docname="moonbreaker.svg"
   inkscape:version="0.92.5 (2060ec1f9f, 2020-04-08)">
  <metadata
     id="metadata3530">
    <rdf:RDF>
      <cc:Work
         rdf:about="">
        <dc:format>image/svg+xml</dc:format>
        <dc:type
           rdf:resource="http://purl.org/dc/dcmitype/StillImage" />
        <dc:title></dc:title>
      </cc:Work>
    </rdf:RDF>
  </metadata>
  <defs
     id="defs3528" />
  <sodipodi:namedview
     pagecolor="#ffffff"
     bordercolor="#666666"
     borderopacity="1"
     objecttolerance="10"
     gridtolerance="10"
     guidetolerance="10"
     inkscape:pageopacity="0"
     inkscape:pageshadow="2"
     inkscape:window-width="3834"
     inkscape:window-height="2104"
     id="namedview3526"
     showgrid="true"
     fit-margin-top="10"
     fit-margin-left="10"
     fit-margin-right="10"
     fit-margin-bottom="10"
     inkscape:zoom="0.4609375"
     inkscape:cx="210.74166"
     inkscape:cy="-67.86404"
     inkscape:window-x="2560"
     inkscape:window-y="24"
     inkscape:window-maximized="0"
     inkscape:current-layer="line_color">
    <inkscape:grid
       type="xygrid"
       id="grid3532"
       visible="true"
       empspacing="25"
       originx="-1.0272037"
       originy="-6.1147136" />
  </sodipodi:namedview>
  <g
     id="line_color"
     data-name="line color"
     transform="translate(-1.0272042,-3.1151267)">
    <path
       d="m 13.032,58.037 a 0.5,0.5 0 0 1 -0.388,-0.184 31.341,31.341 0 0 1 -5.087,-8.865 0.50058566,0.50058566 0 0 1 0.938,-0.35 30.333,30.333 0 0 0 4.925,8.583 0.5,0.5 0 0 1 -0.388,0.816 z"
       id="path3471"
       inkscape:connector-curvature="0"
       style="fill:#323c6b" />
    <path
       d="m 15.608,60.83 a 0.5,0.5 0 0 1 -0.346,-0.139 q -0.313,-0.3 -0.617,-0.607 a 0.5,0.5 0 0 1 0.711,-0.7 q 0.3,0.3 0.6,0.589 a 0.5,0.5 0 0 1 -0.346,0.861 z"
       id="path3473"
       inkscape:connector-curvature="0"
       style="fill:#323c6b" />
    <path
       d="m 64.88,38.04 a 26.965,26.965 0 0 1 -0.72,6.27 8.144,8.144 0 0 0 -13.26,-0.8 6.112,6.112 0 0 0 -2.02,-0.33 6.3,6.3 0 0 0 -6.3,6.28 5.281,5.281 0 0 0 0.78,10.51 H 54.19 A 27.864,27.864 0 0 1 9.09,38.04 28.314,28.314 0 0 1 10.66,28.8 h 21.73 a 5.618,5.618 0 0 0 0.82,-11.18 6.676,6.676 0 0 0 -4.39,-6.26 28.509,28.509 0 0 1 8.16,-1.22 27.892,27.892 0 0 1 27.9,27.9 z"
       id="path3475"
       inkscape:connector-curvature="0"
       style="fill:#eeefee" />
    <path
       d="m 36.98,66.44 a 28.428,28.428 0 0 1 -28.39,-28.4 28.914,28.914 0 0 1 1.6,-9.4 0.5,0.5 0 0 1 0.472,-0.335 H 32.39 a 5.118,5.118 0 0 0 0.748,-10.185 0.5,0.5 0 0 1 -0.428,-0.493 6.2,6.2 0 0 0 -4.061,-5.792 0.5,0.5 0 0 1 0.027,-0.949 28.928,28.928 0 0 1 8.3,-1.241 28.432,28.432 0 0 1 28.4,28.4 27.581,27.581 0 0 1 -0.733,6.386 0.5,0.5 0 0 1 -0.911,0.148 7.643,7.643 0 0 0 -12.443,-0.753 0.5,0.5 0 0 1 -0.556,0.161 5.636,5.636 0 0 0 -1.856,-0.3 5.808,5.808 0 0 0 -5.8,5.781 0.5,0.5 0 0 1 -0.427,0.493 4.781,4.781 0 0 0 0.707,9.515 H 54.19 A 0.5,0.5 0 0 1 54.499,60.37 28.571,28.571 0 0 1 36.98,66.44 Z M 11.018,29.3 A 27.931,27.931 0 0 0 9.59,38.04 27.359,27.359 0 0 0 52.674,60.47 H 43.36 A 5.78,5.78 0 0 1 42.093,49.041 6.812,6.812 0 0 1 48.88,42.68 6.732,6.732 0 0 1 50.731,42.931 8.649,8.649 0 0 1 63.909,43.102 26.894,26.894 0 0 0 64.381,38.04 27.382,27.382 0 0 0 30.239,11.487 7.221,7.221 0 0 1 33.7,17.2 6.117,6.117 0 0 1 32.39,29.3 Z"
       id="path3477"
       inkscape:connector-curvature="0"
       style="fill:#323c6b" />
    <path
       d="m 36.98,10.14 a 28.509,28.509 0 0 0 -8.16,1.22 6.63,6.63 0 0 1 1.929,1.111 27.848,27.848 0 0 1 32.131,27.569 c 0,0.873 -0.05,1.733 -0.128,2.585 a 8.13,8.13 0 0 1 1.408,1.685 26.965,26.965 0 0 0 0.72,-6.27 27.892,27.892 0 0 0 -27.9,-27.9 z"
       id="path3479"
       inkscape:connector-curvature="0"
       style="fill:#dbd8dd" />
    <path
       d="M 40.736,50.1 A 5.33,5.33 0 0 1 42.58,49.463 6.256,6.256 0 0 1 43.544,46.147 6.3,6.3 0 0 0 40.736,50.1 Z"
       id="path3481"
       inkscape:connector-curvature="0"
       style="fill:#dbd8dd" />
    <path
       d="M 21.465,6.2 A 0.507,0.507 0 0 1 21.301,6.173 c -0.143,-0.05 -0.285,-0.1 -0.43,-0.139 a 0.50003325,0.50003325 0 0 1 0.287,-0.958 c 0.158,0.047 0.314,0.1 0.471,0.152 a 0.5,0.5 0 0 1 -0.164,0.973 z"
       id="path3483"
       inkscape:connector-curvature="0"
       style="fill:#323c6b" />
    <path
       d="M 9.395,8.988 A 0.5,0.5 0 0 1 9.041,8.134 12.151,12.151 0 0 1 18.2,4.573 0.5,0.5 0 0 1 18.676,5.095 0.488,0.488 0 0 1 18.154,5.572 11.136,11.136 0 0 0 9.745,8.842 0.5,0.5 0 0 1 9.395,8.988 Z"
       id="path3485"
       inkscape:connector-curvature="0"
       style="fill:#323c6b" />
    <path
       d="M 38.04,23.18 A 5.638,5.638 0 0 1 32.39,28.8 H 9.47 a 6.426,6.426 0 0 1 -0.44,-12.84 8.644,8.644 0 0 1 15.35,-4.67 6.562,6.562 0 0 1 2.13,-0.35 6.355,6.355 0 0 1 2.31,0.42 6.676,6.676 0 0 1 4.39,6.26 5.633,5.633 0 0 1 4.83,5.56 z"
       id="path3487"
       inkscape:connector-curvature="0"
       style="fill:#b6d2dd" />
    <path
       d="M 32.39,29.3 H 9.47 A 6.925,6.925 0 0 1 8.57,15.5 9.147,9.147 0 0 1 24.55,10.712 7.215,7.215 0 0 1 33.7,17.2 6.117,6.117 0 0 1 32.39,29.3 Z M 17.64,8.56 A 8.137,8.137 0 0 0 9.528,16 0.5,0.5 0 0 1 9.062,16.461 5.926,5.926 0 0 0 9.47,28.3 H 32.39 A 5.118,5.118 0 0 0 33.138,18.115 0.5,0.5 0 0 1 32.71,17.622 6.2,6.2 0 0 0 28.649,11.83 6.122,6.122 0 0 0 24.542,11.764 0.5,0.5 0 0 1 23.99,11.604 8.1,8.1 0 0 0 17.64,8.56 Z"
       id="path3489"
       inkscape:connector-curvature="0"
       style="fill:#323c6b" />
    <path
       d="m 33.21,17.62 a 6.676,6.676 0 0 0 -4.39,-6.26 6.355,6.355 0 0 0 -2.31,-0.42 6.562,6.562 0 0 0 -2.13,0.35 8.655,8.655 0 0 0 -13.787,0.4 8.648,8.648 0 0 1 11.787,1.6 6.562,6.562 0 0 1 2.13,-0.35 6.355,6.355 0 0 1 2.31,0.42 6.676,6.676 0 0 1 4.39,6.26 5.633,5.633 0 0 1 4.83,5.56 5.56,5.56 0 0 1 -0.776,2.832 A 5.606,5.606 0 0 0 33.21,17.62 Z"
       id="path3491"
       inkscape:connector-curvature="0"
       style="fill:#acc6cc" />
    <path
       d="m 71,53.93 a 6.056,6.056 0 0 1 -6.08,6.04 H 43.36 a 5.281,5.281 0 0 1 -0.78,-10.51 6.3,6.3 0 0 1 6.3,-6.28 6.112,6.112 0 0 1 2.02,0.33 8.144,8.144 0 0 1 13.26,0.8 8.152,8.152 0 0 1 1.17,3.59 6.065,6.065 0 0 1 5.67,6.03 z"
       id="path3493"
       inkscape:connector-curvature="0"
       style="fill:#b6d2dd" />
    <path
       d="M 64.92,60.47 H 43.36 A 5.78,5.78 0 0 1 42.093,49.041 6.812,6.812 0 0 1 48.88,42.68 6.732,6.732 0 0 1 50.731,42.931 8.6,8.6 0 0 1 65.785,47.442 6.54,6.54 0 0 1 64.92,60.47 Z M 48.88,43.68 a 5.808,5.808 0 0 0 -5.8,5.781 0.5,0.5 0 0 1 -0.427,0.493 4.781,4.781 0 0 0 0.707,9.515 H 64.92 A 5.541,5.541 0 0 0 65.3,48.4 0.5,0.5 0 0 1 64.835,47.943 7.623,7.623 0 0 0 51.295,43.822 0.5,0.5 0 0 1 50.739,43.983 5.636,5.636 0 0 0 48.88,43.68 Z"
       id="path3495"
       inkscape:connector-curvature="0"
       style="fill:#323c6b" />
    <path
       d="m 39.992,50.6 a 5.288,5.288 0 0 1 0.588,-0.142 c 0,-0.09 0.01,-0.178 0.014,-0.268 a 5.342,5.342 0 0 0 -0.602,0.41 z"
       id="path3497"
       inkscape:connector-curvature="0"
       style="fill:#acc6cc" />
    <path
       d="m 65.33,47.9 a 8.116,8.116 0 0 0 -12.683,-6 8.082,8.082 0 0 1 10.683,7 A 6.028,6.028 0 0 1 66.6,59.732 6.034,6.034 0 0 0 65.33,47.9 Z"
       id="path3499"
       inkscape:connector-curvature="0"
       style="fill:#acc6cc" />
    <path
       d="m 52.26,26.036 a 3.179,3.179 0 1 1 -3.179,-3.179 3.188,3.188 0 0 1 3.179,3.179 z"
       id="path3501"
       inkscape:connector-curvature="0"
       style="fill:#dbd8dd" />
    <path
       d="m 49.082,29.715 a 3.678,3.678 0 1 1 3.679,-3.678 3.683,3.683 0 0 1 -3.679,3.678 z m 0,-6.357 a 2.678,2.678 0 1 0 2.679,2.679 2.682,2.682 0 0 0 -2.679,-2.679 z"
       id="path3503"
       inkscape:connector-curvature="0"
       style="fill:#323c6b" />
    <path
       d="M 23.7,38.041 A 3.179,3.179 0 1 1 20.521,34.862 3.188,3.188 0 0 1 23.7,38.041 Z"
       id="path3505"
       inkscape:connector-curvature="0"
       style="fill:#dbd8dd" />
    <path
       d="m 20.521,41.719 a 3.678,3.678 0 1 1 3.679,-3.678 3.682,3.682 0 0 1 -3.679,3.678 z m 0,-6.357 a 2.678,2.678 0 1 0 2.679,2.679 2.681,2.681 0 0 0 -2.679,-2.679 z"
       id="path3507"
       inkscape:connector-curvature="0"
       style="fill:#323c6b" />
    <path
       d="m 30.714,51.469 a 2.657,2.657 0 1 1 -2.657,-2.657 2.665,2.665 0 0 1 2.657,2.657 z"
       id="path3509"
       inkscape:connector-curvature="0"
       style="fill:#dbd8dd" />
    <path
       d="m 28.057,54.626 a 3.157,3.157 0 1 1 3.157,-3.157 3.16,3.16 0 0 1 -3.157,3.157 z m 0,-5.313 a 2.157,2.157 0 1 0 2.157,2.157 2.159,2.159 0 0 0 -2.157,-2.157 z"
       id="path3511"
       inkscape:connector-curvature="0"
       style="fill:#323c6b" />
    <path
       d="M 64.92,60.47 H 43.36 A 5.78,5.78 0 0 1 42.093,49.041 6.812,6.812 0 0 1 48.88,42.68 6.732,6.732 0 0 1 50.731,42.931 8.6,8.6 0 0 1 65.785,47.442 6.54,6.54 0 0 1 64.92,60.47 Z M 48.88,43.68 a 5.808,5.808 0 0 0 -5.8,5.781 0.5,0.5 0 0 1 -0.427,0.493 4.781,4.781 0 0 0 0.707,9.515 H 64.92 A 5.541,5.541 0 0 0 65.3,48.4 0.5,0.5 0 0 1 64.835,47.943 7.623,7.623 0 0 0 51.295,43.822 0.5,0.5 0 0 1 50.739,43.983 5.636,5.636 0 0 0 48.88,43.68 Z"
       id="path3513"
       inkscape:connector-curvature="0"
       style="fill:#323c6b" />
    <path
       d="M 32.39,29.3 H 9.47 A 6.925,6.925 0 0 1 8.57,15.5 9.147,9.147 0 0 1 24.55,10.712 7.215,7.215 0 0 1 33.7,17.2 6.117,6.117 0 0 1 32.39,29.3 Z M 17.64,8.56 A 8.137,8.137 0 0 0 9.528,16 0.5,0.5 0 0 1 9.062,16.461 5.926,5.926 0 0 0 9.47,28.3 H 32.39 A 5.118,5.118 0 0 0 33.138,18.115 0.5,0.5 0 0 1 32.71,17.622 6.2,6.2 0 0 0 28.649,11.83 6.122,6.122 0 0 0 24.542,11.764 0.5,0.5 0 0 1 23.99,11.604 8.1,8.1 0 0 0 17.64,8.56 Z"
       id="path3515"
       inkscape:connector-curvature="0"
       style="fill:#323c6b" />
    <path
       d="m 36.98,66.44 a 28.428,28.428 0 0 1 -28.39,-28.4 28.914,28.914 0 0 1 1.6,-9.4 0.5,0.5 0 0 1 0.472,-0.335 H 32.39 a 5.118,5.118 0 0 0 0.748,-10.185 0.5,0.5 0 0 1 -0.428,-0.493 6.2,6.2 0 0 0 -4.061,-5.792 0.5,0.5 0 0 1 0.027,-0.949 28.928,28.928 0 0 1 8.3,-1.241 28.432,28.432 0 0 1 28.4,28.4 27.581,27.581 0 0 1 -0.733,6.386 0.5,0.5 0 0 1 -0.911,0.148 7.643,7.643 0 0 0 -12.443,-0.753 0.5,0.5 0 0 1 -0.556,0.161 5.636,5.636 0 0 0 -1.856,-0.3 5.808,5.808 0 0 0 -5.8,5.781 0.5,0.5 0 0 1 -0.427,0.493 4.781,4.781 0 0 0 0.707,9.515 H 54.19 A 0.5,0.5 0 0 1 54.499,60.37 28.571,28.571 0 0 1 36.98,66.44 Z M 11.018,29.3 A 27.931,27.931 0 0 0 9.59,38.04 27.359,27.359 0 0 0 52.674,60.47 H 43.36 A 5.78,5.78 0 0 1 42.093,49.041 6.812,6.812 0 0 1 48.88,42.68 6.732,6.732 0 0 1 50.731,42.931 8.649,8.649 0 0 1 63.909,43.102 26.894,26.894 0 0 0 64.381,38.04 27.382,27.382 0 0 0 30.239,11.487 7.221,7.221 0 0 1 33.7,17.2 6.117,6.117 0 0 1 32.39,29.3 Z"
       id="path3517"
       style="fill:#323c6b;fill-opacity:1"
       inkscape:connector-curvature="0" />
    <path
       d="m 14.579,44.339 -0.074,0.011 a 0.951,0.951 0 0 0 -0.764,1.108 4.392,4.392 0 0 0 0.223,0.931 0.95150473,0.95150473 0 1 0 1.823,-0.546 3.016,3.016 0 0 1 -0.174,-0.729 0.952,0.952 0 0 0 -1.034,-0.775 z"
       id="path3519"
       inkscape:connector-curvature="0"
       style="fill:#dbd8dd" />
    <path
       d="m 16.119,48.466 a 0.953,0.953 0 0 0 -0.83,1.328 17.737,17.737 0 0 0 8.51,8.7 0.952,0.952 0 0 0 0.9,-1.677 15.969,15.969 0 0 1 -7.662,-7.774 0.952,0.952 0 0 0 -0.918,-0.577 z"
       id="path3521"
       inkscape:connector-curvature="0"
       style="fill:#dbd8dd" />
    <g
       id="g8095"
       transform="translate(0,-0.578125)">
      <g
         id="text3536"
         style="font-style:normal;font-weight:normal;font-size:49.33333588px;line-height:1.25;font-family:sans-serif;letter-spacing:0px;word-spacing:0px;fill:#323c6b;fill-opacity:1;stroke:none;stroke-width:0.14453125"
         aria-label="moonbreaker">
        <path
           id="path8060"
           style="font-style:normal;font-variant:normal;font-weight:normal;font-stretch:normal;font-family:'Trebuchet MS';-inkscape-font-specification:'Trebuchet MS';fill:#323c6b;fill-opacity:1;stroke-width:0.14453125"
           d="M 113.89756,53.275688 V 36.943656 q 0,-6.094401 -5.27539,-6.094401 -1.66211,0 -3.10742,1.035807 -1.44531,1.011719 -1.97526,2.3125 V 53.275688 H 98.962668 V 34.944307 q 0,-1.902995 -1.445313,-2.986979 -1.421224,-1.108073 -3.781901,-1.108073 -1.373047,0 -2.938802,1.059896 -1.541667,1.059895 -2.192058,2.336588 V 53.275688 H 84.027771 V 27.476859 h 2.986979 l 1.517579,2.986979 q 2.649739,-3.46875 6.624349,-3.46875 5.540362,0 7.756512,3.444661 0.77083,-1.469401 2.86654,-2.457031 2.0957,-0.98763 4.31184,-0.98763 3.9987,0 6.19076,2.384766 2.19206,2.360677 2.19206,6.648437 v 17.247397 z"
           inkscape:connector-curvature="0" />
        <path
           id="path8062"
           style="font-style:normal;font-variant:normal;font-weight:normal;font-stretch:normal;font-family:'Trebuchet MS';-inkscape-font-specification:'Trebuchet MS';fill:#323c6b;fill-opacity:1;stroke-width:0.14453125"
           d="m 123.2921,40.316052 q 0,-5.973959 3.20377,-9.635417 3.22787,-3.685547 8.47917,-3.685547 5.54036,0 8.59961,3.541016 3.05924,3.516927 3.05924,9.779948 0,6.238933 -3.13151,9.852214 -3.13151,3.589193 -8.52734,3.589193 -5.51628,0 -8.59961,-3.63737 -3.08333,-3.63737 -3.08333,-9.804037 z m 4.81771,0 q 0,9.707683 6.86523,9.707683 3.20378,0 5.01042,-2.601563 1.83073,-2.601562 1.83073,-7.10612 0,-9.58724 -6.84115,-9.58724 -3.13151,0 -5.01042,2.553386 -1.85481,2.553385 -1.85481,7.033854 z"
           inkscape:connector-curvature="0" />
        <path
           id="path8064"
           style="font-style:normal;font-variant:normal;font-weight:normal;font-stretch:normal;font-family:'Trebuchet MS';-inkscape-font-specification:'Trebuchet MS';fill:#323c6b;fill-opacity:1;stroke-width:0.14453125"
           d="m 149.7654,40.316052 q 0,-5.973959 3.20378,-9.635417 3.22786,-3.685547 8.47916,-3.685547 5.54037,0 8.59961,3.541016 3.05925,3.516927 3.05925,9.779948 0,6.238933 -3.13151,9.852214 -3.13151,3.589193 -8.52735,3.589193 -5.51627,0 -8.59961,-3.63737 -3.08333,-3.63737 -3.08333,-9.804037 z m 4.81771,0 q 0,9.707683 6.86523,9.707683 3.20378,0 5.01042,-2.601563 1.83073,-2.601562 1.83073,-7.10612 0,-9.58724 -6.84115,-9.58724 -3.13151,0 -5.01041,2.553386 -1.85482,2.553385 -1.85482,7.033854 z"
           inkscape:connector-curvature="0" />
        <path
           id="path8066"
           style="font-style:normal;font-variant:normal;font-weight:normal;font-stretch:normal;font-family:'Trebuchet MS';-inkscape-font-specification:'Trebuchet MS';fill:#323c6b;fill-opacity:1;stroke-width:0.14453125"
           d="M 193.79926,53.275688 V 38.268526 q 0,-4.119141 -1.2526,-5.757162 -1.22852,-1.662109 -4.14323,-1.662109 -1.56576,0 -3.27604,0.939453 -1.71029,0.939453 -2.62566,2.3125 v 19.17448 h -4.57682 V 27.476859 h 3.13151 l 1.44531,3.324219 q 2.26433,-3.80599 7.39519,-3.80599 8.47916,0 8.47916,10.309896 v 15.970704 z"
           inkscape:connector-curvature="0" />
        <path
           id="path8068"
           style="font-style:normal;font-variant:normal;font-weight:normal;font-stretch:normal;font-family:'Trebuchet MS';-inkscape-font-specification:'Trebuchet MS';fill:#323c6b;fill-opacity:1;stroke-width:0.14453125"
           d="m 208.78233,51.42087 -1.61393,2.336589 h -2.28841 V 16.901988 h 4.57682 v 12.477866 q 0.65039,-0.891276 2.43295,-1.638021 1.80664,-0.746745 3.54101,-0.746745 5.29948,0 8.57552,3.661458 3.30013,3.661459 3.30013,9.250001 0,6.455729 -3.30013,10.165365 -3.30013,3.685547 -8.93685,3.685547 -1.83073,0 -3.61328,-0.674479 -1.75846,-0.698568 -2.67383,-1.66211 z m 0.67448,-18.548178 v 14.88672 q 0,0.385417 1.71029,1.276693 1.71029,0.867187 2.60156,0.867187 4.67318,0 6.69662,-2.240234 2.02343,-2.240235 2.02343,-7.515626 0,-4.384115 -2.36067,-6.841146 -2.36068,-2.457031 -6.35938,-2.457031 -0.8431,0 -2.36068,0.722656 -1.49348,0.722656 -1.95117,1.300781 z"
           inkscape:connector-curvature="0" />
        <path
           id="path8070"
           style="font-style:normal;font-variant:normal;font-weight:normal;font-stretch:normal;font-family:'Trebuchet MS';-inkscape-font-specification:'Trebuchet MS';fill:#323c6b;fill-opacity:1;stroke-width:0.14453125"
           d="m 246.38455,31.885062 q -1.49349,-1.035807 -3.01106,-1.035807 -2.43295,0 -4.26368,2.240234 -1.80664,2.240235 -1.80664,5.395834 v 14.790365 h -4.57682 V 27.476859 h 4.57682 V 31.596 q 2.50521,-4.600912 7.44336,-4.600912 1.22852,0 3.54102,0.433594 z"
           inkscape:connector-curvature="0" />
        <path
           id="path8072"
           style="font-style:normal;font-variant:normal;font-weight:normal;font-stretch:normal;font-family:'Trebuchet MS';-inkscape-font-specification:'Trebuchet MS';fill:#323c6b;fill-opacity:1;stroke-width:0.14453125"
           d="m 273.26737,40.821911 h -18.59635 q 0,4.528647 2.48112,6.961589 2.19205,2.119792 5.63671,2.119792 3.92644,0 6.55209,-2.288411 l 1.92708,3.30013 q -1.05989,1.059896 -3.25195,1.830729 -2.7461,1.011719 -6.11849,1.011719 -4.86589,0 -8.26237,-3.30013 -3.7819,-3.63737 -3.7819,-9.779949 0,-6.383464 3.87825,-10.237631 3.46875,-3.444661 8.2142,-3.444661 5.51627,0 8.64778,3.107422 3.03516,2.986979 3.03516,7.925131 0,1.517578 -0.36133,2.79427 z m -11.10482,-9.972656 q -3.05924,0 -5.13086,1.97526 -1.97526,1.878907 -2.24023,4.673178 h 14.2845 q 0,-2.770183 -1.73437,-4.625001 -1.903,-2.023437 -5.17904,-2.023437 z"
           inkscape:connector-curvature="0" />
        <path
           id="path8074"
           style="font-style:normal;font-variant:normal;font-weight:normal;font-stretch:normal;font-family:'Trebuchet MS';-inkscape-font-specification:'Trebuchet MS';fill:#323c6b;fill-opacity:1;stroke-width:0.14453125"
           d="m 293.01996,50.312797 q -2.74609,3.444662 -8.4069,3.444662 -3.03515,0 -5.27539,-2.192057 -2.21614,-2.216146 -2.21614,-5.492188 0,-3.926433 3.42057,-6.624349 3.44466,-2.722006 8.76823,-2.722006 1.44531,0 3.27604,0.626302 0,-6.263021 -5.58854,-6.263021 -4.28776,0 -6.60026,2.3125 l -1.92709,-3.830078 q 1.30079,-1.059896 3.5892,-1.806641 2.3125,-0.770833 4.4082,-0.770833 5.61263,0 8.14193,2.553385 2.55338,2.553386 2.55338,8.117839 v 9.250001 q 0,3.396484 2.02344,4.528646 v 2.288411 q -2.79427,0 -4.1914,-0.794921 -1.37305,-0.794922 -1.97527,-2.625652 z m -0.43359,-9.707682 q -2.16797,-0.481771 -3.03516,-0.481771 -3.46875,0 -5.6608,1.782552 -2.19206,1.782552 -2.19206,4.215495 0,4.022787 4.74544,4.022787 3.46875,0 6.14258,-3.300131 z"
           inkscape:connector-curvature="0" />
        <path
           id="path8076"
           style="font-style:normal;font-variant:normal;font-weight:normal;font-stretch:normal;font-family:'Trebuchet MS';-inkscape-font-specification:'Trebuchet MS';fill:#323c6b;fill-opacity:1;stroke-width:0.14453125"
           d="m 321.03495,53.275688 -8.09375,-12.911459 -3.9987,4.119141 v 8.792318 h -4.57682 v -36.3737 h 4.57682 v 22.570965 l 9.8763,-11.996094 h 5.34766 l -8.26237,9.804037 10.0931,15.994792 z"
           inkscape:connector-curvature="0" />
        <path
           id="path8078"
           style="font-style:normal;font-variant:normal;font-weight:normal;font-stretch:normal;font-family:'Trebuchet MS';-inkscape-font-specification:'Trebuchet MS';fill:#323c6b;fill-opacity:1;stroke-width:0.14453125"
           d="m 350.97701,40.821911 h -18.59635 q 0,4.528647 2.48112,6.961589 2.19205,2.119792 5.63672,2.119792 3.92643,0 6.55208,-2.288411 l 1.92708,3.30013 q -1.05989,1.059896 -3.25195,1.830729 -2.74609,1.011719 -6.11849,1.011719 -4.86589,0 -8.26237,-3.30013 -3.7819,-3.63737 -3.7819,-9.779949 0,-6.383464 3.87825,-10.237631 3.46875,-3.444661 8.2142,-3.444661 5.51627,0 8.64778,3.107422 3.03516,2.986979 3.03516,7.925131 0,1.517578 -0.36133,2.79427 z m -11.10482,-9.972656 q -3.05924,0 -5.13086,1.97526 -1.97526,1.878907 -2.24023,4.673178 h 14.2845 q 0,-2.770183 -1.73437,-4.625001 -1.903,-2.023437 -5.17904,-2.023437 z"
           inkscape:connector-curvature="0" />
        <path
           id="path8080"
           style="font-style:normal;font-variant:normal;font-weight:normal;font-stretch:normal;font-family:'Trebuchet MS';-inkscape-font-specification:'Trebuchet MS';fill:#323c6b;fill-opacity:1;stroke-width:0.14453125"
           d="m 370.17557,31.885062 q -1.49349,-1.035807 -3.01107,-1.035807 -2.43294,0 -4.26367,2.240234 -1.80664,2.240235 -1.80664,5.395834 v 14.790365 h -4.57683 V 27.476859 h 4.57683 V 31.596 q 2.50521,-4.600912 7.44336,-4.600912 1.22851,0 3.54101,0.433594 z"
           inkscape:connector-curvature="0" />
      </g>
    </g>
  </g>
</svg>
